<?xml version="1.0" encoding="utf-8"?>
<!-- Generator: Adobe Illustrator 17.0.0, SVG Export Plug-In . SVG Version: 6.00 Build 0)  -->
<!DOCTYPE svg PUBLIC "-//W3C//DTD SVG 1.1//EN" "http://www.w3.org/Graphics/SVG/1.1/DTD/svg11.dtd">
<svg version="1.1" id="Vrstva_1" xmlns="http://www.w3.org/2000/svg" xmlns:xlink="http://www.w3.org/1999/xlink" x="0px" y="0px"
	 width="250px" height="55px" viewBox="0 0 250 55" enable-background="new 0 0 250 55" xml:space="preserve">
<g>
	<g>
		<path fill="#FFA500" d="M6.086,51.875H2.61l-0.602,1.29c-0.139,0.313-0.233,0.56-0.233,0.708c0,0.116,0.082,0.233,0.201,0.321
			c0.138,0.102,0.409,0.164,0.839,0.19v0.22H0v-0.22c0.373-0.065,0.615-0.137,0.736-0.243c0.215-0.184,0.474-0.578,0.742-1.164
			l3.142-6.698h0.236l3.114,6.771c0.254,0.542,0.48,0.903,0.677,1.064c0.213,0.158,0.496,0.246,0.861,0.271v0.22H5.98v-0.22
			c0.356-0.021,0.595-0.072,0.719-0.168c0.135-0.085,0.186-0.198,0.186-0.336c0-0.181-0.089-0.451-0.267-0.831L6.086,51.875z
			 M5.896,51.434L4.38,48.146l-1.565,3.288H5.896z"/>
		<path fill="#FFA500" d="M20.166,46.689v-0.229h3.16v0.229h-0.327c-0.366,0-0.62,0.128-0.824,0.393
			c-0.082,0.131-0.134,0.413-0.134,0.882v3.293c0,0.814-0.088,1.447-0.263,1.897c-0.174,0.453-0.532,0.829-1.057,1.157
			c-0.514,0.322-1.217,0.481-2.125,0.481c-0.975,0-1.718-0.151-2.217-0.459c-0.514-0.317-0.866-0.727-1.084-1.243
			c-0.134-0.356-0.203-1.027-0.203-2.007v-3.181c0-0.495-0.078-0.828-0.228-0.979c-0.153-0.164-0.404-0.235-0.736-0.235h-0.339
			v-0.229h3.866v0.229h-0.348c-0.365,0-0.627,0.101-0.79,0.319c-0.106,0.14-0.165,0.437-0.165,0.895v3.549
			c0,0.313,0.037,0.678,0.097,1.084c0.068,0.407,0.185,0.734,0.347,0.956c0.17,0.236,0.416,0.415,0.725,0.567
			c0.315,0.145,0.695,0.225,1.15,0.225c0.595,0,1.119-0.124,1.578-0.352c0.467-0.234,0.776-0.526,0.948-0.892
			c0.167-0.366,0.259-0.977,0.259-1.833v-3.304c0-0.507-0.07-0.82-0.192-0.944c-0.176-0.178-0.433-0.269-0.76-0.269H20.166z"/>
		<path fill="#FFA500" d="M35.348,46.459l0.104,1.916h-0.246c-0.049-0.337-0.115-0.578-0.2-0.725
			c-0.138-0.227-0.323-0.406-0.544-0.511c-0.235-0.109-0.529-0.159-0.895-0.159h-1.261v6.211c0,0.502,0.053,0.807,0.175,0.939
			c0.166,0.166,0.433,0.253,0.777,0.253h0.308v0.22h-3.802v-0.22h0.313c0.393,0,0.651-0.113,0.812-0.318
			c0.094-0.126,0.144-0.421,0.144-0.874V46.98h-1.071c-0.424,0-0.724,0.027-0.901,0.084c-0.228,0.072-0.417,0.214-0.584,0.431
			c-0.164,0.219-0.26,0.519-0.296,0.881h-0.245l0.109-1.916H35.348z"/>
		<path fill="#FFA500" d="M44.537,46.277c1.169,0,2.173,0.403,3.028,1.215c0.851,0.792,1.274,1.801,1.274,2.985
			c0,1.239-0.432,2.274-1.276,3.083c-0.874,0.821-1.916,1.231-3.125,1.231c-1.233,0-2.271-0.404-3.105-1.2
			c-0.837-0.789-1.254-1.827-1.254-3.088c0-1.286,0.488-2.348,1.452-3.158C42.364,46.632,43.375,46.277,44.537,46.277z M44.42,46.71
			c-0.798,0-1.446,0.285-1.927,0.818c-0.61,0.669-0.913,1.661-0.913,2.95c0,1.33,0.317,2.358,0.937,3.065
			c0.493,0.547,1.126,0.818,1.915,0.818c0.835,0,1.53-0.296,2.074-0.891c0.554-0.604,0.829-1.541,0.829-2.826
			c0-1.39-0.315-2.429-0.906-3.109C45.94,46.995,45.277,46.71,44.42,46.71z"/>
		<path fill="#FFA500" d="M70.211,46.459v0.229c-0.327,0.051-0.567,0.141-0.731,0.275c-0.227,0.197-0.434,0.494-0.612,0.901
			l-3.13,6.928h-0.242l-3.35-7.016c-0.181-0.362-0.298-0.585-0.368-0.662c-0.104-0.119-0.246-0.224-0.399-0.297
			c-0.167-0.06-0.371-0.112-0.656-0.128v-0.229h3.66v0.229c-0.42,0.035-0.694,0.101-0.804,0.191
			c-0.12,0.093-0.186,0.202-0.186,0.355c0,0.2,0.106,0.51,0.296,0.937l2.294,4.772l2.103-4.71c0.205-0.464,0.311-0.788,0.311-0.965
			c0-0.121-0.062-0.237-0.188-0.339c-0.135-0.099-0.339-0.172-0.651-0.224c-0.016,0-0.061-0.01-0.115-0.016v-0.229H70.211z"/>
		<path fill="#FFA500" d="M77.243,46.91v3.213h1.969c0.513,0,0.86-0.068,1.03-0.21c0.226-0.185,0.354-0.503,0.386-0.965h0.237v2.83
			h-0.237c-0.068-0.402-0.126-0.647-0.185-0.773c-0.083-0.134-0.215-0.25-0.396-0.321c-0.175-0.078-0.455-0.124-0.834-0.124h-1.969
			v2.682c0,0.364,0.021,0.58,0.051,0.663c0.041,0.076,0.112,0.142,0.19,0.184c0.094,0.047,0.26,0.07,0.506,0.07h1.513
			c0.517,0,0.884-0.03,1.096-0.101c0.237-0.06,0.454-0.186,0.669-0.377c0.265-0.242,0.552-0.621,0.835-1.123h0.272l-0.782,2.043
			h-6.892v-0.22h0.327c0.205,0,0.404-0.049,0.589-0.137c0.14-0.074,0.234-0.16,0.281-0.291c0.051-0.132,0.08-0.394,0.08-0.791v-5.28
			c0-0.521-0.058-0.846-0.168-0.956c-0.157-0.169-0.42-0.24-0.782-0.24h-0.327v-0.229h6.892l0.096,1.795h-0.249
			c-0.088-0.43-0.199-0.726-0.313-0.89c-0.102-0.151-0.27-0.282-0.492-0.368c-0.176-0.057-0.495-0.085-0.929-0.085H77.243z"/>
		<path fill="#FFA500" d="M94.565,46.459l0.09,1.916h-0.249c-0.049-0.337-0.115-0.578-0.198-0.725
			c-0.134-0.227-0.316-0.406-0.543-0.511c-0.234-0.109-0.532-0.159-0.894-0.159h-1.267v6.211c0,0.502,0.062,0.807,0.187,0.939
			c0.157,0.166,0.426,0.253,0.765,0.253h0.315v0.22H88.97v-0.22h0.317c0.385,0,0.653-0.113,0.805-0.318
			c0.106-0.126,0.14-0.421,0.14-0.874V46.98h-1.058c-0.42,0-0.73,0.027-0.905,0.084c-0.22,0.072-0.42,0.214-0.584,0.431
			c-0.159,0.219-0.258,0.519-0.296,0.881h-0.236l0.1-1.916H94.565z"/>
		<path fill="#FFA500" d="M101.869,46.91v3.213h1.971c0.517,0,0.844-0.068,1.031-0.21c0.227-0.185,0.347-0.503,0.371-0.965h0.257
			v2.83h-0.257c-0.058-0.402-0.117-0.647-0.187-0.773c-0.076-0.134-0.201-0.25-0.378-0.321c-0.182-0.078-0.458-0.124-0.837-0.124
			h-1.971v2.682c0,0.364,0.026,0.58,0.054,0.663c0.03,0.076,0.106,0.142,0.187,0.184c0.088,0.047,0.251,0.07,0.508,0.07h1.518
			c0.496,0,0.87-0.03,1.098-0.101c0.228-0.06,0.449-0.186,0.659-0.377c0.276-0.242,0.552-0.621,0.83-1.123h0.28l-0.779,2.043h-6.901
			v-0.22h0.319c0.207,0,0.406-0.049,0.599-0.137c0.135-0.074,0.235-0.16,0.289-0.291c0.049-0.132,0.074-0.394,0.074-0.791v-5.28
			c0-0.521-0.053-0.846-0.167-0.956c-0.156-0.169-0.426-0.24-0.795-0.24h-0.319v-0.229h6.901l0.093,1.795h-0.253
			c-0.087-0.43-0.195-0.726-0.313-0.89c-0.096-0.151-0.271-0.282-0.489-0.368c-0.177-0.057-0.495-0.085-0.925-0.085H101.869z"/>
		<path fill="#FFA500" d="M120.503,54.603h-2.401l-3.023-3.805c-0.227,0.013-0.411,0.013-0.551,0.013c-0.058,0-0.117,0-0.176,0
			c-0.069,0-0.139-0.013-0.207-0.013v2.366c0,0.513,0.053,0.825,0.178,0.952c0.164,0.18,0.412,0.267,0.756,0.267h0.355v0.22h-3.844
			v-0.22h0.333c0.391,0,0.659-0.113,0.816-0.335c0.1-0.122,0.133-0.421,0.133-0.884v-5.262c0-0.507-0.055-0.828-0.176-0.944
			c-0.175-0.178-0.424-0.269-0.773-0.269h-0.333v-0.229h3.262c0.948,0,1.655,0.07,2.099,0.196c0.449,0.128,0.835,0.355,1.151,0.696
			c0.315,0.336,0.467,0.741,0.467,1.203c0,0.513-0.176,0.944-0.531,1.306c-0.351,0.376-0.918,0.632-1.666,0.785l1.847,2.332
			c0.426,0.535,0.785,0.89,1.086,1.072c0.306,0.167,0.706,0.285,1.198,0.335V54.603z M114.145,50.421c0.078,0,0.154,0,0.207,0
			c0.065,0,0.118,0.006,0.159,0.006c0.847,0,1.494-0.166,1.929-0.511c0.436-0.326,0.651-0.761,0.651-1.279
			c0-0.511-0.178-0.924-0.531-1.235c-0.337-0.321-0.799-0.479-1.384-0.479c-0.262,0-0.602,0.04-1.03,0.108V50.421z"/>
		<path fill="#FFA500" d="M130.619,51.875h-3.468l-0.611,1.29c-0.151,0.313-0.215,0.56-0.215,0.708c0,0.116,0.057,0.233,0.185,0.321
			c0.134,0.102,0.413,0.164,0.846,0.19v0.22h-2.822v-0.22c0.37-0.065,0.623-0.137,0.722-0.243c0.235-0.184,0.479-0.578,0.754-1.164
			l3.148-6.698h0.235l3.112,6.771c0.252,0.542,0.473,0.903,0.692,1.064c0.195,0.158,0.482,0.246,0.844,0.271v0.22h-3.528v-0.22
			c0.355-0.021,0.596-0.072,0.719-0.168c0.129-0.085,0.19-0.198,0.19-0.336c0-0.181-0.092-0.451-0.26-0.831L130.619,51.875z
			 M130.433,51.434l-1.514-3.288l-1.563,3.288H130.433z"/>
		<path fill="#FFA500" d="M138.072,46.459h2.434l5.468,6.117v-4.704c0-0.505-0.058-0.809-0.183-0.934
			c-0.163-0.171-0.427-0.25-0.776-0.25h-0.309v-0.229h3.122v0.229h-0.321c-0.376,0-0.648,0.101-0.811,0.307
			c-0.098,0.141-0.132,0.429-0.132,0.877v6.866h-0.251l-5.894-6.552v5.005c0,0.502,0.059,0.807,0.186,0.939
			c0.163,0.166,0.415,0.253,0.766,0.253h0.326v0.22h-3.125v-0.22h0.31c0.386,0,0.656-0.113,0.813-0.318
			c0.093-0.126,0.148-0.421,0.148-0.874v-5.656c-0.256-0.272-0.463-0.461-0.592-0.539c-0.14-0.1-0.342-0.179-0.588-0.256
			c-0.142-0.034-0.322-0.051-0.59-0.051V46.459z"/>
		<path fill="#FFA500" d="M167.64,46.277l0.205,2.769h-0.205c-0.275-0.831-0.659-1.423-1.16-1.784
			c-0.511-0.373-1.113-0.558-1.825-0.558c-0.59,0-1.131,0.142-1.605,0.413c-0.492,0.277-0.865,0.723-1.139,1.315
			c-0.274,0.606-0.417,1.346-0.417,2.236c0,0.732,0.129,1.384,0.399,1.918c0.264,0.534,0.643,0.956,1.161,1.239
			c0.528,0.29,1.118,0.436,1.783,0.436c0.589,0,1.11-0.112,1.542-0.336c0.451-0.234,0.935-0.684,1.465-1.35l0.216,0.123
			c-0.455,0.719-0.973,1.252-1.577,1.589c-0.601,0.337-1.314,0.504-2.132,0.504c-1.481,0-2.64-0.496-3.446-1.499
			C160.29,52.551,160,51.666,160,50.658c0-0.818,0.187-1.555,0.59-2.238c0.405-0.678,0.951-1.207,1.654-1.579
			c0.707-0.367,1.472-0.563,2.305-0.563c0.65,0,1.287,0.148,1.911,0.427c0.187,0.092,0.309,0.142,0.397,0.142
			c0.117,0,0.23-0.046,0.309-0.114c0.118-0.108,0.199-0.26,0.251-0.455H167.64z"/>
		<path fill="#FFA500" d="M177.516,46.277c1.164,0,2.165,0.403,3.025,1.215c0.857,0.792,1.28,1.801,1.28,2.985
			c0,1.239-0.438,2.274-1.29,3.083c-0.86,0.821-1.899,1.231-3.116,1.231c-1.233,0-2.265-0.404-3.099-1.2
			c-0.842-0.789-1.268-1.827-1.268-3.088c0-1.286,0.486-2.348,1.453-3.158C175.35,46.632,176.344,46.277,177.516,46.277z
			 M177.389,46.71c-0.791,0-1.434,0.285-1.925,0.818c-0.602,0.669-0.903,1.661-0.903,2.95c0,1.33,0.309,2.358,0.936,3.065
			c0.485,0.547,1.119,0.818,1.91,0.818c0.834,0,1.523-0.296,2.072-0.891c0.556-0.604,0.829-1.541,0.829-2.826
			c0-1.39-0.309-2.429-0.899-3.109C178.918,46.995,178.246,46.71,177.389,46.71z"/>
		<path fill="#FFA500" d="M191.931,54.603l-3.47-6.846v5.435c0,0.502,0.065,0.807,0.187,0.939c0.157,0.166,0.42,0.253,0.77,0.253
			h0.311v0.22h-3.115v-0.22h0.315c0.387,0,0.648-0.113,0.812-0.318c0.095-0.126,0.147-0.421,0.147-0.874v-5.318
			c0-0.353-0.053-0.61-0.128-0.772c-0.076-0.12-0.188-0.222-0.346-0.3c-0.165-0.077-0.433-0.112-0.801-0.112v-0.229h2.54
			l3.248,6.377l3.188-6.377h2.538v0.229h-0.316c-0.381,0-0.649,0.101-0.807,0.307c-0.094,0.141-0.146,0.429-0.146,0.877v5.318
			c0,0.502,0.065,0.807,0.188,0.939c0.163,0.166,0.412,0.253,0.765,0.253h0.316v0.22h-3.798v-0.22h0.317
			c0.381,0,0.648-0.113,0.8-0.318c0.106-0.126,0.144-0.421,0.144-0.874v-5.435l-3.451,6.846H191.931z"/>
		<path fill="#FFA500" d="M205.24,50.798v2.366c0,0.513,0.059,0.825,0.186,0.952c0.172,0.18,0.416,0.267,0.755,0.267h0.351v0.22
			h-3.838v-0.22h0.334c0.385,0,0.654-0.113,0.818-0.335c0.073-0.122,0.127-0.421,0.127-0.884v-5.262
			c0-0.507-0.054-0.828-0.168-0.944c-0.17-0.178-0.435-0.269-0.777-0.269h-0.334v-0.229h3.281c0.797,0,1.433,0.08,1.888,0.229
			c0.472,0.152,0.859,0.399,1.174,0.756c0.315,0.356,0.466,0.788,0.466,1.279c0,0.662-0.234,1.193-0.712,1.614
			c-0.486,0.419-1.157,0.627-2.056,0.627c-0.204,0-0.438-0.013-0.696-0.042C205.799,50.884,205.531,50.848,205.24,50.798z
			 M205.24,50.447c0.239,0.044,0.436,0.075,0.618,0.103c0.178,0.004,0.334,0.023,0.462,0.023c0.462,0,0.859-0.167,1.181-0.482
			c0.34-0.319,0.503-0.742,0.503-1.258c0-0.349-0.082-0.679-0.235-0.974c-0.169-0.307-0.384-0.532-0.678-0.679
			c-0.28-0.148-0.616-0.222-0.98-0.222c-0.235,0-0.513,0.038-0.871,0.106V50.447z"/>
		<path fill="#FFA500" d="M218.989,51.875h-3.477l-0.596,1.29c-0.149,0.313-0.232,0.56-0.232,0.708c0,0.116,0.076,0.233,0.206,0.321
			c0.128,0.102,0.397,0.164,0.83,0.19v0.22h-2.81v-0.22c0.373-0.065,0.612-0.137,0.725-0.243c0.223-0.184,0.465-0.578,0.747-1.164
			l3.155-6.698h0.214l3.126,6.771c0.25,0.542,0.478,0.903,0.685,1.064c0.201,0.158,0.487,0.246,0.848,0.271v0.22h-3.536v-0.22
			c0.363-0.021,0.6-0.072,0.728-0.168c0.124-0.085,0.19-0.198,0.19-0.336c0-0.181-0.083-0.451-0.265-0.831L218.989,51.875z
			 M218.808,51.434l-1.521-3.288l-1.569,3.288H218.808z"/>
		<path fill="#FFA500" d="M226.439,46.459h2.424l5.473,6.117v-4.704c0-0.505-0.056-0.809-0.19-0.934
			c-0.151-0.171-0.412-0.25-0.77-0.25h-0.306v-0.229h3.117v0.229h-0.318c-0.378,0-0.641,0.101-0.799,0.307
			c-0.107,0.141-0.151,0.429-0.151,0.877v6.866h-0.228l-5.917-6.552v5.005c0,0.502,0.065,0.807,0.186,0.939
			c0.169,0.166,0.422,0.253,0.773,0.253h0.321v0.22h-3.125v-0.22h0.315c0.381,0,0.648-0.113,0.811-0.318
			c0.099-0.126,0.141-0.421,0.141-0.874v-5.656c-0.251-0.272-0.45-0.461-0.579-0.539c-0.145-0.1-0.331-0.179-0.603-0.256
			c-0.114-0.034-0.313-0.051-0.577-0.051V46.459z"/>
		<path fill="#FFA500" d="M246.88,46.459H250v0.229h-0.169c-0.119,0-0.288,0.051-0.499,0.141c-0.231,0.087-0.431,0.215-0.614,0.393
			c-0.181,0.172-0.39,0.452-0.664,0.834l-2.143,3.096v2.038c0,0.502,0.052,0.807,0.177,0.939c0.16,0.166,0.418,0.253,0.792,0.253
			h0.286v0.22h-3.796v-0.22h0.31c0.379,0,0.648-0.113,0.806-0.318c0.099-0.126,0.152-0.421,0.152-0.874V51.27l-2.452-3.411
			c-0.311-0.402-0.5-0.646-0.603-0.751c-0.099-0.097-0.322-0.218-0.631-0.355c-0.099-0.047-0.233-0.063-0.391-0.063v-0.229h3.833
			v0.229h-0.199c-0.212,0-0.411,0.044-0.575,0.128c-0.181,0.094-0.267,0.222-0.267,0.401c0,0.146,0.142,0.406,0.408,0.787
			l1.868,2.615l1.759-2.512c0.256-0.366,0.392-0.656,0.392-0.84c0-0.108-0.037-0.211-0.094-0.296
			c-0.066-0.093-0.151-0.155-0.272-0.212c-0.125-0.049-0.299-0.071-0.534-0.071V46.459z"/>
	</g>
	<g>
		<path fill="#FFA500" d="M102.896,22.688H89.402l-2.351,5.157c-0.587,1.278-0.867,2.219-0.867,2.853c0,0.504,0.252,0.933,0.751,1.3
			c0.505,0.395,1.597,0.63,3.271,0.744v0.885H79.24v-0.885c1.455-0.248,2.406-0.557,2.826-0.945c0.882-0.763,1.847-2.33,2.903-4.686
			L97.217,0.208h0.905l12.112,27.186c0.985,2.18,1.866,3.602,2.657,4.245c0.795,0.655,1.913,1.018,3.335,1.102v0.885h-13.741v-0.885
			c1.389-0.072,2.323-0.282,2.81-0.656c0.489-0.363,0.728-0.818,0.728-1.345c0-0.707-0.341-1.822-1.021-3.347L102.896,22.688z
			 M102.175,20.911l-5.91-13.218l-6.059,13.218H102.175z"/>
		<path fill="#FFA500" d="M142.118,0.955V1.84c-1.239,0.218-2.174,0.58-2.802,1.115c-0.905,0.791-1.713,1.99-2.414,3.614
			l-12.154,27.807h-0.947L110.759,6.213c-0.67-1.446-1.141-2.336-1.422-2.651c-0.421-0.499-0.946-0.897-1.568-1.171
			c-0.637-0.282-1.466-0.468-2.529-0.551V0.955h14.227V1.84c-1.618,0.147-2.651,0.409-3.14,0.776
			c-0.481,0.371-0.717,0.842-0.717,1.421c0,0.803,0.393,2.059,1.177,3.762l8.865,19.155l8.224-18.911
			c0.795-1.869,1.205-3.158,1.205-3.883c0-0.469-0.246-0.911-0.743-1.34c-0.507-0.42-1.342-0.727-2.522-0.902
			c-0.083-0.014-0.234-0.039-0.439-0.079V0.955H142.118z"/>
		<path fill="#FFA500" d="M169.152,0.208l0.8,11.107h-0.8c-1.052-3.321-2.563-5.716-4.544-7.182
			c-1.966-1.46-4.318-2.194-7.077-2.194c-2.313,0-4.403,0.557-6.272,1.654c-1.851,1.102-3.329,2.855-4.399,5.263
			c-1.068,2.415-1.61,5.406-1.61,8.998c0,2.945,0.513,5.514,1.522,7.681c1.006,2.166,2.53,3.827,4.558,4.984
			c2.029,1.166,4.342,1.741,6.944,1.741c2.265,0,4.262-0.463,5.985-1.366c1.729-0.905,3.632-2.708,5.693-5.408l0.808,0.486
			c-1.747,2.902-3.785,5.033-6.122,6.38c-2.33,1.351-5.088,2.025-8.298,2.025c-5.758,0-10.228-1.998-13.393-6.026
			c-2.357-2.989-3.551-6.503-3.551-10.546c0-3.266,0.783-6.265,2.341-8.993c1.555-2.734,3.704-4.857,6.427-6.354
			c2.739-1.503,5.71-2.25,8.959-2.25c2.507,0,4.992,0.581,7.439,1.731c0.722,0.36,1.239,0.537,1.548,0.537
			c0.454,0,0.863-0.152,1.203-0.462c0.442-0.434,0.764-1.04,0.951-1.807H169.152z"/>
	</g>
	<g>
		<g>
			<rect x="0" y="16.739" fill="#FFA500" width="72.252" height="1.105"/>
		</g>
		<g>
			<rect x="177.756" y="16.739" fill="#FFA500" width="72.244" height="1.105"/>
		</g>
	</g>
</g>
<g>
</g>
<g>
</g>
<g>
</g>
<g>
</g>
<g>
</g>
<g>
</g>
</svg>
