<?xml version="1.0" encoding="utf-8"?>
<!-- Generator: Adobe Illustrator 17.0.0, SVG Export Plug-In . SVG Version: 6.00 Build 0)  -->
<!DOCTYPE svg PUBLIC "-//W3C//DTD SVG 1.1//EN" "http://www.w3.org/Graphics/SVG/1.1/DTD/svg11.dtd">
<svg version="1.1" id="Vrstva_1" xmlns="http://www.w3.org/2000/svg" xmlns:xlink="http://www.w3.org/1999/xlink" x="0px" y="0px"
	 width="200px" height="44px" viewBox="0 0 200 44" enable-background="new 0 0 200 44" xml:space="preserve">
<g>
	<g>
		<path d="M4.869,41.5H2.088l-0.482,1.032c-0.112,0.251-0.186,0.448-0.186,0.567c0,0.093,0.065,0.186,0.161,0.257
			c0.11,0.082,0.327,0.131,0.671,0.152v0.176H0v-0.176c0.298-0.052,0.492-0.109,0.589-0.195c0.172-0.147,0.379-0.462,0.593-0.931
			l2.514-5.359h0.189l2.491,5.417c0.203,0.433,0.384,0.723,0.541,0.851c0.17,0.127,0.397,0.196,0.689,0.217v0.176H4.784v-0.176
			c0.285-0.017,0.476-0.058,0.575-0.134c0.108-0.068,0.149-0.158,0.149-0.269c0-0.145-0.071-0.361-0.214-0.665L4.869,41.5z
			 M4.717,41.147l-1.213-2.63l-1.252,2.63H4.717z"/>
		<path d="M16.133,37.351v-0.183h2.528v0.183h-0.262c-0.293,0-0.496,0.102-0.659,0.314c-0.066,0.105-0.108,0.331-0.108,0.705v2.635
			c0,0.651-0.07,1.158-0.21,1.518c-0.14,0.363-0.425,0.663-0.846,0.926c-0.411,0.258-0.973,0.385-1.7,0.385
			c-0.78,0-1.375-0.121-1.774-0.367c-0.411-0.253-0.693-0.581-0.867-0.995c-0.107-0.285-0.162-0.822-0.162-1.605v-2.545
			c0-0.396-0.062-0.662-0.182-0.783c-0.122-0.131-0.323-0.188-0.589-0.188h-0.271v-0.183h3.092v0.183h-0.278
			c-0.292,0-0.502,0.081-0.632,0.255c-0.085,0.112-0.132,0.35-0.132,0.716v2.84c0,0.251,0.029,0.543,0.078,0.867
			c0.054,0.326,0.148,0.587,0.278,0.765c0.136,0.189,0.332,0.332,0.58,0.454c0.252,0.116,0.556,0.18,0.92,0.18
			c0.476,0,0.895-0.099,1.262-0.282c0.373-0.187,0.621-0.421,0.758-0.714c0.134-0.293,0.208-0.781,0.208-1.467v-2.643
			c0-0.406-0.056-0.656-0.153-0.755c-0.14-0.142-0.347-0.215-0.608-0.215H16.133z"/>
		<path d="M28.279,37.167l0.084,1.533h-0.196c-0.04-0.27-0.092-0.462-0.16-0.58c-0.11-0.182-0.258-0.325-0.435-0.409
			c-0.188-0.087-0.423-0.127-0.716-0.127h-1.009v4.969c0,0.401,0.042,0.646,0.14,0.751c0.133,0.133,0.346,0.202,0.622,0.202h0.246
			v0.176h-3.042v-0.176h0.25c0.315,0,0.521-0.09,0.649-0.254c0.075-0.101,0.115-0.337,0.115-0.699v-4.969h-0.857
			c-0.339,0-0.579,0.022-0.721,0.067c-0.182,0.058-0.334,0.171-0.467,0.345c-0.131,0.175-0.208,0.415-0.236,0.704h-0.196
			l0.087-1.533H28.279z"/>
		<path d="M35.63,37.022c0.935,0,1.738,0.322,2.422,0.972c0.68,0.634,1.019,1.441,1.019,2.388c0,0.991-0.346,1.819-1.021,2.467
			c-0.699,0.657-1.533,0.984-2.5,0.984c-0.987,0-1.817-0.323-2.484-0.96c-0.669-0.631-1.003-1.462-1.003-2.47
			c0-1.028,0.391-1.878,1.162-2.526C33.892,37.305,34.7,37.022,35.63,37.022z M35.536,37.368c-0.639,0-1.157,0.228-1.541,0.654
			c-0.488,0.535-0.73,1.329-0.73,2.36c0,1.064,0.253,1.886,0.749,2.452c0.394,0.438,0.901,0.655,1.532,0.655
			c0.668,0,1.224-0.237,1.659-0.713c0.444-0.483,0.663-1.233,0.663-2.261c0-1.112-0.252-1.943-0.725-2.487
			C36.752,37.596,36.221,37.368,35.536,37.368z"/>
		<path d="M56.169,37.167v0.183c-0.262,0.04-0.453,0.113-0.585,0.22c-0.182,0.158-0.347,0.395-0.49,0.721l-2.504,5.542h-0.194
			l-2.68-5.613c-0.145-0.289-0.238-0.468-0.295-0.53c-0.084-0.095-0.197-0.179-0.32-0.238c-0.134-0.048-0.297-0.09-0.525-0.102
			v-0.183h2.928v0.183c-0.336,0.028-0.555,0.081-0.643,0.152c-0.096,0.074-0.149,0.162-0.149,0.284c0,0.16,0.084,0.408,0.237,0.749
			l1.835,3.817l1.682-3.768c0.164-0.371,0.248-0.63,0.248-0.772c0-0.096-0.05-0.189-0.15-0.271
			c-0.108-0.079-0.271-0.138-0.521-0.179c-0.013,0-0.049-0.008-0.092-0.013v-0.183H56.169z"/>
		<path d="M61.795,37.528v2.57h1.575c0.41,0,0.688-0.054,0.824-0.168c0.18-0.148,0.283-0.402,0.309-0.772h0.19v2.264h-0.19
			c-0.055-0.321-0.101-0.518-0.148-0.618c-0.067-0.107-0.172-0.2-0.317-0.257c-0.14-0.062-0.364-0.099-0.667-0.099h-1.575v2.145
			c0,0.291,0.017,0.464,0.041,0.531c0.033,0.061,0.09,0.114,0.152,0.147c0.075,0.038,0.208,0.056,0.405,0.056h1.211
			c0.414,0,0.707-0.024,0.877-0.081c0.19-0.048,0.363-0.149,0.535-0.301c0.212-0.194,0.442-0.497,0.668-0.898h0.217l-0.625,1.635
			h-5.514v-0.176h0.261c0.164,0,0.323-0.04,0.472-0.109c0.112-0.059,0.187-0.128,0.225-0.233c0.041-0.106,0.064-0.315,0.064-0.633
			v-4.224c0-0.417-0.046-0.677-0.135-0.765c-0.126-0.135-0.336-0.192-0.626-0.192h-0.261v-0.183h5.514l0.077,1.436h-0.199
			c-0.07-0.344-0.159-0.58-0.251-0.712c-0.082-0.121-0.216-0.226-0.394-0.295c-0.141-0.046-0.396-0.068-0.743-0.068H61.795z"/>
		<path d="M75.652,37.167l0.072,1.533h-0.199c-0.039-0.27-0.092-0.462-0.158-0.58c-0.107-0.182-0.252-0.325-0.435-0.409
			c-0.187-0.087-0.425-0.127-0.715-0.127h-1.014v4.969c0,0.401,0.05,0.646,0.149,0.751c0.125,0.133,0.341,0.202,0.612,0.202h0.252
			v0.176h-3.042v-0.176h0.253c0.308,0,0.522-0.09,0.644-0.254c0.084-0.101,0.112-0.337,0.112-0.699v-4.969h-0.846
			c-0.336,0-0.584,0.022-0.724,0.067c-0.176,0.058-0.336,0.171-0.467,0.345c-0.127,0.175-0.206,0.415-0.236,0.704h-0.189l0.08-1.533
			H75.652z"/>
		<path d="M81.495,37.528v2.57h1.577c0.413,0,0.675-0.054,0.825-0.168c0.181-0.148,0.277-0.402,0.297-0.772h0.205v2.264h-0.205
			c-0.046-0.321-0.093-0.518-0.149-0.618c-0.061-0.107-0.161-0.2-0.302-0.257c-0.146-0.062-0.366-0.099-0.67-0.099h-1.577v2.145
			c0,0.291,0.021,0.464,0.043,0.531c0.024,0.061,0.084,0.114,0.15,0.147c0.071,0.038,0.201,0.056,0.406,0.056h1.215
			c0.397,0,0.696-0.024,0.879-0.081c0.182-0.048,0.359-0.149,0.528-0.301c0.221-0.194,0.442-0.497,0.664-0.898h0.224l-0.624,1.635
			h-5.521v-0.176h0.255c0.166,0,0.325-0.04,0.479-0.109c0.108-0.059,0.188-0.128,0.231-0.233c0.039-0.106,0.059-0.315,0.059-0.633
			v-4.224c0-0.417-0.043-0.677-0.134-0.765c-0.124-0.135-0.341-0.192-0.636-0.192h-0.255v-0.183h5.521l0.074,1.436h-0.202
			c-0.07-0.344-0.156-0.58-0.251-0.712c-0.077-0.121-0.217-0.226-0.392-0.295c-0.142-0.046-0.396-0.068-0.74-0.068H81.495z"/>
		<path d="M96.402,43.682h-1.921l-2.418-3.044c-0.182,0.01-0.329,0.01-0.441,0.01c-0.046,0-0.093,0-0.141,0
			c-0.056,0-0.112-0.01-0.165-0.01v1.893c0,0.41,0.042,0.66,0.143,0.761c0.131,0.144,0.329,0.214,0.605,0.214h0.284v0.176h-3.075
			v-0.176h0.267c0.313,0,0.527-0.09,0.652-0.268c0.08-0.097,0.106-0.337,0.106-0.707v-4.21c0-0.406-0.044-0.662-0.14-0.755
			c-0.14-0.142-0.339-0.215-0.618-0.215h-0.267v-0.183h2.61c0.759,0,1.324,0.056,1.679,0.157c0.36,0.103,0.668,0.284,0.921,0.556
			c0.252,0.269,0.374,0.593,0.374,0.962c0,0.41-0.141,0.755-0.425,1.045c-0.281,0.301-0.735,0.506-1.333,0.628l1.478,1.865
			c0.341,0.428,0.628,0.712,0.869,0.858c0.245,0.134,0.565,0.228,0.958,0.268V43.682z M91.316,40.337c0.062,0,0.124,0,0.165,0
			c0.052,0,0.094,0.005,0.127,0.005c0.677,0,1.195-0.133,1.543-0.409c0.349-0.261,0.521-0.609,0.521-1.023
			c0-0.409-0.142-0.739-0.425-0.988c-0.27-0.257-0.64-0.383-1.107-0.383c-0.209,0-0.481,0.032-0.824,0.086V40.337z"/>
		<path d="M104.495,41.5h-2.774l-0.489,1.032c-0.121,0.251-0.172,0.448-0.172,0.567c0,0.093,0.045,0.186,0.148,0.257
			c0.107,0.082,0.33,0.131,0.677,0.152v0.176h-2.257v-0.176c0.296-0.052,0.498-0.109,0.577-0.195
			c0.188-0.147,0.383-0.462,0.603-0.931l2.518-5.359h0.188l2.49,5.417c0.202,0.433,0.378,0.723,0.554,0.851
			c0.156,0.127,0.386,0.196,0.675,0.217v0.176h-2.822v-0.176c0.284-0.017,0.477-0.058,0.575-0.134
			c0.103-0.068,0.152-0.158,0.152-0.269c0-0.145-0.073-0.361-0.208-0.665L104.495,41.5z M104.346,41.147l-1.211-2.63l-1.251,2.63
			H104.346z"/>
		<path d="M110.458,37.167h1.947l4.374,4.894v-3.763c0-0.404-0.046-0.647-0.146-0.748c-0.13-0.137-0.342-0.2-0.621-0.2h-0.247
			v-0.183h2.498v0.183h-0.257c-0.301,0-0.519,0.081-0.649,0.245c-0.078,0.113-0.106,0.343-0.106,0.702v5.492h-0.201l-4.715-5.242
			v4.004c0,0.401,0.047,0.646,0.149,0.751c0.13,0.133,0.332,0.202,0.612,0.202h0.261v0.176h-2.5v-0.176h0.248
			c0.308,0,0.525-0.09,0.65-0.254c0.074-0.101,0.118-0.337,0.118-0.699v-4.525c-0.205-0.218-0.37-0.369-0.474-0.432
			c-0.112-0.08-0.274-0.143-0.47-0.205c-0.114-0.028-0.258-0.04-0.472-0.04V37.167z"/>
		<path d="M134.112,37.022l0.164,2.215h-0.164c-0.22-0.665-0.527-1.139-0.928-1.427c-0.409-0.298-0.891-0.446-1.46-0.446
			c-0.472,0-0.905,0.114-1.284,0.331c-0.394,0.221-0.692,0.579-0.911,1.052c-0.219,0.485-0.333,1.077-0.333,1.789
			c0,0.586,0.103,1.108,0.32,1.535c0.211,0.427,0.514,0.765,0.928,0.991c0.422,0.232,0.894,0.349,1.426,0.349
			c0.471,0,0.888-0.09,1.233-0.269c0.361-0.187,0.748-0.547,1.172-1.08l0.173,0.098c-0.364,0.575-0.779,1.002-1.262,1.271
			c-0.481,0.27-1.051,0.403-1.705,0.403c-1.185,0-2.112-0.397-2.757-1.199c-0.493-0.594-0.724-1.302-0.724-2.108
			c0-0.655,0.15-1.244,0.472-1.791c0.324-0.543,0.761-0.965,1.323-1.263c0.566-0.294,1.177-0.45,1.844-0.45
			c0.52,0,1.029,0.119,1.529,0.342c0.15,0.073,0.247,0.114,0.318,0.114c0.094,0,0.184-0.037,0.247-0.091
			c0.095-0.086,0.159-0.208,0.201-0.364H134.112z"/>
		<path d="M142.013,37.022c0.931,0,1.732,0.322,2.42,0.972c0.686,0.634,1.024,1.441,1.024,2.388c0,0.991-0.35,1.819-1.032,2.467
			c-0.688,0.657-1.519,0.984-2.493,0.984c-0.986,0-1.812-0.323-2.48-0.96c-0.674-0.631-1.015-1.462-1.015-2.47
			c0-1.028,0.389-1.878,1.163-2.526C140.28,37.305,141.075,37.022,142.013,37.022z M141.911,37.368c-0.633,0-1.147,0.228-1.54,0.654
			c-0.481,0.535-0.723,1.329-0.723,2.36c0,1.064,0.247,1.886,0.748,2.452c0.388,0.438,0.895,0.655,1.528,0.655
			c0.667,0,1.219-0.237,1.658-0.713c0.444-0.483,0.663-1.233,0.663-2.261c0-1.112-0.247-1.943-0.719-2.487
			C143.134,37.596,142.597,37.368,141.911,37.368z"/>
		<path d="M153.545,43.682l-2.776-5.477v4.348c0,0.401,0.052,0.646,0.15,0.751c0.126,0.133,0.336,0.202,0.616,0.202h0.249v0.176
			h-2.492v-0.176h0.252c0.309,0,0.518-0.09,0.649-0.254c0.076-0.101,0.118-0.337,0.118-0.699v-4.255
			c0-0.282-0.042-0.488-0.102-0.618c-0.061-0.096-0.151-0.177-0.276-0.24c-0.132-0.062-0.346-0.09-0.641-0.09v-0.183h2.032
			l2.598,5.101l2.55-5.101h2.03v0.183h-0.252c-0.305,0-0.519,0.081-0.646,0.245c-0.075,0.113-0.117,0.343-0.117,0.702v4.255
			c0,0.401,0.052,0.646,0.151,0.751c0.13,0.133,0.33,0.202,0.612,0.202h0.252v0.176h-3.039v-0.176h0.253
			c0.305,0,0.518-0.09,0.64-0.254c0.084-0.101,0.115-0.337,0.115-0.699v-4.348l-2.76,5.477H153.545z"/>
		<path d="M164.192,40.638v1.893c0,0.41,0.047,0.66,0.149,0.761c0.138,0.144,0.332,0.214,0.604,0.214h0.281v0.176h-3.07v-0.176
			h0.267c0.308,0,0.523-0.09,0.655-0.268c0.059-0.097,0.102-0.337,0.102-0.707v-4.21c0-0.406-0.043-0.662-0.134-0.755
			c-0.136-0.142-0.348-0.215-0.622-0.215h-0.267v-0.183h2.625c0.637,0,1.146,0.064,1.511,0.183c0.377,0.121,0.687,0.32,0.939,0.605
			c0.252,0.285,0.373,0.63,0.373,1.023c0,0.53-0.187,0.954-0.569,1.291c-0.388,0.335-0.926,0.501-1.645,0.501
			c-0.163,0-0.351-0.01-0.556-0.034C164.639,40.707,164.425,40.678,164.192,40.638z M164.192,40.358
			c0.191,0.035,0.349,0.06,0.494,0.083c0.142,0.003,0.267,0.018,0.369,0.018c0.37,0,0.687-0.134,0.945-0.386
			c0.272-0.255,0.402-0.593,0.402-1.006c0-0.279-0.066-0.543-0.188-0.779c-0.135-0.245-0.308-0.425-0.543-0.543
			c-0.224-0.119-0.493-0.177-0.784-0.177c-0.188,0-0.41,0.03-0.697,0.085V40.358z"/>
		<path d="M175.191,41.5h-2.782l-0.477,1.032c-0.119,0.251-0.186,0.448-0.186,0.567c0,0.093,0.061,0.186,0.164,0.257
			c0.102,0.082,0.318,0.131,0.664,0.152v0.176h-2.248v-0.176c0.298-0.052,0.489-0.109,0.58-0.195
			c0.178-0.147,0.372-0.462,0.598-0.931l2.524-5.359h0.171l2.501,5.417c0.2,0.433,0.382,0.723,0.548,0.851
			c0.161,0.127,0.389,0.196,0.679,0.217v0.176h-2.828v-0.176c0.29-0.017,0.48-0.058,0.582-0.134
			c0.099-0.068,0.152-0.158,0.152-0.269c0-0.145-0.066-0.361-0.212-0.665L175.191,41.5z M175.046,41.147l-1.217-2.63l-1.255,2.63
			H175.046z"/>
		<path d="M181.151,37.167h1.94l4.379,4.894v-3.763c0-0.404-0.045-0.647-0.152-0.748c-0.121-0.137-0.33-0.2-0.616-0.2h-0.245v-0.183
			h2.493v0.183h-0.254c-0.302,0-0.512,0.081-0.639,0.245c-0.085,0.113-0.121,0.343-0.121,0.702v5.492h-0.183l-4.734-5.242v4.004
			c0,0.401,0.052,0.646,0.149,0.751c0.135,0.133,0.338,0.202,0.618,0.202h0.257v0.176h-2.5v-0.176h0.252
			c0.305,0,0.518-0.09,0.649-0.254c0.079-0.101,0.113-0.337,0.113-0.699v-4.525c-0.201-0.218-0.36-0.369-0.463-0.432
			c-0.116-0.08-0.264-0.143-0.482-0.205c-0.091-0.028-0.251-0.04-0.462-0.04V37.167z"/>
		<path d="M197.504,37.167H200v0.183h-0.135c-0.095,0-0.23,0.04-0.399,0.113c-0.185,0.07-0.344,0.172-0.491,0.314
			c-0.145,0.138-0.312,0.362-0.531,0.667l-1.715,2.477v1.63c0,0.401,0.041,0.646,0.141,0.751c0.128,0.133,0.334,0.202,0.634,0.202
			h0.229v0.176h-3.037v-0.176h0.248c0.303,0,0.518-0.09,0.645-0.254c0.079-0.101,0.121-0.337,0.121-0.699v-1.537l-1.962-2.729
			c-0.249-0.321-0.4-0.517-0.482-0.601c-0.079-0.078-0.258-0.174-0.505-0.284c-0.079-0.038-0.186-0.051-0.313-0.051v-0.183h3.066
			v0.183h-0.159c-0.17,0-0.329,0.035-0.46,0.102c-0.145,0.075-0.214,0.177-0.214,0.32c0,0.117,0.114,0.325,0.326,0.63l1.494,2.092
			l1.407-2.009c0.205-0.293,0.314-0.524,0.314-0.672c0-0.086-0.029-0.169-0.075-0.237c-0.053-0.074-0.121-0.124-0.218-0.17
			c-0.1-0.04-0.239-0.057-0.427-0.057V37.167z"/>
	</g>
	<g>
		<path d="M82.317,18.15H71.522l-1.881,4.126c-0.469,1.022-0.694,1.775-0.694,2.282c0,0.403,0.202,0.747,0.601,1.04
			c0.404,0.316,1.277,0.504,2.617,0.595v0.708h-8.772v-0.708c1.164-0.198,1.925-0.445,2.26-0.756
			c0.706-0.611,1.478-1.864,2.322-3.749l9.799-21.522h0.724l9.69,21.749c0.788,1.744,1.493,2.882,2.126,3.396
			c0.636,0.524,1.53,0.815,2.668,0.882v0.708H81.988v-0.708c1.111-0.058,1.859-0.226,2.248-0.525
			c0.391-0.29,0.582-0.655,0.582-1.076c0-0.566-0.273-1.457-0.817-2.678L82.317,18.15z M81.74,16.729L77.012,6.154l-4.847,10.575
			H81.74z"/>
		<path d="M113.694,0.764v0.708c-0.991,0.174-1.739,0.464-2.242,0.892c-0.724,0.633-1.37,1.592-1.931,2.891l-9.723,22.246h-0.757
			L88.608,4.97c-0.536-1.157-0.913-1.869-1.137-2.12c-0.337-0.399-0.757-0.717-1.254-0.937c-0.509-0.226-1.173-0.375-2.023-0.441
			V0.764h11.381v0.708c-1.295,0.118-2.121,0.327-2.512,0.621c-0.385,0.297-0.574,0.674-0.574,1.137c0,0.642,0.314,1.648,0.941,3.01
			l7.092,15.324l6.579-15.129c0.636-1.495,0.964-2.526,0.964-3.106c0-0.375-0.196-0.729-0.594-1.072
			c-0.406-0.336-1.074-0.581-2.018-0.722c-0.066-0.011-0.187-0.031-0.351-0.063V0.764H113.694z"/>
		<path d="M135.322,0.166l0.64,8.886h-0.64c-0.842-2.657-2.051-4.573-3.635-5.746c-1.573-1.168-3.455-1.755-5.662-1.755
			c-1.85,0-3.523,0.445-5.018,1.323c-1.481,0.882-2.663,2.284-3.519,4.21c-0.854,1.932-1.288,4.325-1.288,7.199
			c0,2.356,0.41,4.411,1.218,6.145c0.804,1.733,2.024,3.062,3.647,3.987c1.624,0.933,3.474,1.393,5.555,1.393
			c1.812,0,3.41-0.37,4.788-1.093c1.383-0.724,2.906-2.166,4.554-4.327l0.646,0.389c-1.398,2.322-3.028,4.026-4.897,5.104
			c-1.864,1.081-4.07,1.62-6.639,1.62c-4.606,0-8.182-1.599-10.714-4.821c-1.885-2.391-2.84-5.203-2.84-8.437
			c0-2.613,0.626-5.012,1.872-7.194c1.244-2.187,2.963-3.886,5.142-5.083c2.191-1.202,4.568-1.8,7.167-1.8
			c2.006,0,3.994,0.465,5.951,1.385c0.578,0.288,0.991,0.43,1.239,0.43c0.363,0,0.691-0.121,0.962-0.369
			c0.354-0.348,0.611-0.832,0.761-1.445H135.322z"/>
	</g>
	<g>
		<g>
			<rect x="0" y="13.391" width="57.802" height="0.884"/>
		</g>
		<g>
			<rect x="142.205" y="13.391" width="57.795" height="0.884"/>
		</g>
	</g>
</g>
<g>
</g>
<g>
</g>
<g>
</g>
<g>
</g>
<g>
</g>
<g>
</g>
</svg>
